<?xml version="1.0" encoding="utf-8"?>
<!-- Generator: Adobe Illustrator 28.3.0, SVG Export Plug-In . SVG Version: 6.00 Build 0)  -->
<svg version="1.1" id="Layer_1" xmlns="http://www.w3.org/2000/svg" xmlns:xlink="http://www.w3.org/1999/xlink" x="0px" y="0px"
	 viewBox="0 0 75 75" style="enable-background:new 0 0 75 75;" xml:space="preserve">
<style type="text/css">
	.st0{fill:#FFFFFF;}
</style>
<g>
	<path class="st0" d="M28.6,43.7c-0.5,0-1,0.5-1,1c0,0.4,0.3,0.7,0.7,0.7c0.5,0,1-0.5,1-1C29.3,44,29,43.7,28.6,43.7z M25.1,44.1
		c-0.3,1.4-1.2,5.9-1.2,5.9c-0.1,0.2-0.4,1.5,1,1.5H25l1.8-8.6C26.8,43,25.3,42.7,25.1,44.1z M27.2,47.1c-0.3,1.4-0.6,2.9-0.6,2.9
		c-0.1,0.2-0.4,1.5,1,1.5h0.2l1.2-5.6C28.8,46,27.5,45.8,27.2,47.1z M21.1,45.9c-0.8,0-1.5,0.3-2,0.7c-0.8,0.7-1.3,1.8-1.3,3
		c0,1.3,0.9,2,2.2,2c0.8,0,1.5-0.3,2-0.7c0.8-0.7,1.3-1.8,1.3-3C23.2,46.6,22.3,45.9,21.1,45.9z M21,50.1c-0.2,0.3-0.6,0.5-0.9,0.5
		c-0.6,0-0.8-0.4-0.8-1c0-0.6,0.2-1.6,0.7-2.2c0.2-0.3,0.6-0.5,1-0.5c0.6,0,0.8,0.4,0.8,1C21.7,48.6,21.5,49.5,21,50.1z M50.1,43.8
		c-0.2,1-1.3,6.3-1.3,6.3c-0.1,0.3-0.4,1.5,1,1.5H50l1.8-8.9C51.4,42.6,50.3,42.6,50.1,43.8z M55.4,45.9c-0.7,0-1.3,0.3-1.7,0.8
		c0,0,0-1.1-1.5-0.7c0.3,0.8,0.1,1-0.2,2.6l-0.3,1.5c-0.1,0.3-0.4,1.5,1,1.5h0.2l0.5-2.6c0.1-0.7,0.4-2,1.5-2c0.5,0,0.8,0.3,0.6,1.1
		l-0.4,1.9c-0.1,0.2-0.4,1.5,1,1.5h0.2l0.7-3.5C57.3,46.6,56.5,45.9,55.4,45.9z M16.4,43.8c-0.1,0.3-0.2,1-0.5,2.2l-2.5,0.5l0.7-3.6
		c-0.2,0-1.5-0.1-1.7,1.2c-0.1,0.4-1.2,5.9-1.2,5.9c-0.1,0.3-0.4,1.5,1,1.5h0.2l0.7-3.5l2.5-0.5c-0.2,1.2-0.5,2.5-0.5,2.5
		c-0.1,0.2-0.4,1.5,1,1.5h0.2l1.9-8.9C18.1,42.7,16.7,42.4,16.4,43.8z M61.5,45.9c-0.7,0-1.3,0.3-1.7,0.8c0,0-0.1-1.1-1.5-0.7
		c0.3,0.8,0.1,1-0.2,2.6l-0.3,1.5c-0.1,0.3-0.4,1.5,1,1.5H59l0.5-2.6c0.1-0.7,0.4-2,1.5-2c0.5,0,0.8,0.3,0.6,1.1l-0.4,1.9
		c-0.1,0.2-0.4,1.5,1,1.5h0.2l0.7-3.5C63.4,46.6,62.7,45.9,61.5,45.9z M33.8,44.2c-0.1,0.6-0.4,1.7-0.4,1.8c-0.1,0-0.4,0-0.6,0
		c-2.2,0-3.7,1.8-3.7,3.7c0,1.2,0.7,2,1.9,2c0.7,0,1.2-0.2,1.5-0.6c0.1,0.4,0.5,0.6,1,0.6h0.2l1.8-8.6C35.4,43,34.1,42.8,33.8,44.2z
		 M32.8,49.2c-0.1,0.4-0.2,0.8-0.4,1c-0.2,0.2-0.5,0.4-0.8,0.4c-0.5,0-0.8-0.4-0.8-1c0-1.3,0.9-2.7,2.1-2.7c0.2,0,0.4,0,0.4,0.1
		L32.8,49.2z M38.9,45.9c-2.1,0-3.7,1.7-3.7,3.7c0,1.2,0.7,2,1.8,2c0.7,0,1.2-0.3,1.5-0.6c0.1,0.4,0.5,0.6,1,0.6h0.2l1.1-5.2
		C40.2,46.1,39.6,45.9,38.9,45.9z M38.7,49.2c-0.1,0.4-0.2,0.8-0.4,1c-0.2,0.2-0.5,0.4-0.8,0.4c-0.5,0-0.8-0.3-0.8-1
		c0-1.2,0.8-2.7,2.1-2.7c0.1,0,0.2,0,0.3,0.1L38.7,49.2z M45.3,47.2C45,48.3,45,48.5,45,48.5c-0.1,0.7-0.4,2-1.4,2
		c-0.9,0-0.6-1-0.6-1.3l0.7-3.2c0,0-1.4-0.3-1.8,1.3c-0.3,1.6-0.4,1.8-0.4,1.8c-0.1,0.3-0.1,0.7-0.1,1c0,0.4,0.1,0.7,0.4,1
		c-0.9,0.2-1.3,0.7-1.3,1.3c0,1,0.9,1.5,2.2,1.5c1.1,0,1.9-0.4,2.5-1c0.4-0.5,0.7-1.2,0.9-2.1l1-4.8C47,46,45.6,45.8,45.3,47.2z
		 M44.3,51.5c-0.1,0.4-0.3,0.8-0.6,1.1C43.4,52.9,43,53,42.6,53c-0.5,0-1-0.2-1-0.7c0-0.6,0.6-0.7,1.4-0.8c0.6-0.1,1.1-0.2,1.4-0.5
		L44.3,51.5z M64.1,46.3c0-0.1,0-0.1-0.1-0.1h-0.1v0.2H64C64.1,46.4,64.1,46.4,64.1,46.3z M64.3,46.7C64.2,46.7,64.2,46.7,64.3,46.7
		c-0.1,0-0.1,0-0.1,0L64,46.5h-0.1v0.2h-0.1v-0.5h0v-0.1H64c0.1,0,0.2,0.1,0.2,0.2c0,0.1,0,0.1-0.1,0.2L64.3,46.7
		C64.2,46.7,64.2,46.7,64.3,46.7C64.2,46.7,64.2,46.7,64.3,46.7L64.3,46.7z M64.5,46.4c0-0.3-0.2-0.5-0.4-0.5
		c-0.3,0-0.4,0.2-0.4,0.5c0,0.3,0.2,0.5,0.4,0.5C64.3,46.9,64.5,46.7,64.5,46.4z M64.5,46.4c0,0.3-0.2,0.5-0.5,0.5
		c-0.3,0-0.5-0.2-0.5-0.5c0-0.3,0.2-0.5,0.5-0.5C64.3,45.9,64.5,46.1,64.5,46.4z"/>
	<path class="st0" d="M40.4,27.6c-0.2,0.7-0.4,1.5-0.6,2.4c-0.4,1.5-1.1,5.5-1.3,8.1c-0.1,0.1-0.5,0.1-0.6,0.1
		c-0.5,0-1.2-0.3-1.2-1.2c-0.1-1,0.6-4.9,1.5-8.5c0-0.1,0.1-0.2,0.1-0.3c-1.2,0.4-2.3,0.8-3.3,1.3c-0.4,1.6-0.9,4.1-1,6.6
		c0,0-0.4,0.1-0.6,0.1c-0.6,0-1.1-0.4-1.1-1.1c0-1.4,0.3-3.2,0.6-4.6c-1.3,0.6-2.3,1.2-2.9,1.5c-0.1-0.2-0.1-0.5-0.1-0.6
		c0-0.2,0.2-0.7,0.7-1c0.8-0.6,1.7-1.1,2.7-1.7c0.5-2.1,1.2-4.2,1.8-5.5c0.4-0.8,0.9-1.1,1.7-1.1c0.2,0,0.5,0.1,0.7,0.1
		c-0.7,1.6-1.4,3.5-2,5.4c1-0.4,2.1-0.9,3.3-1.3c0.6-2,1.1-3.5,1.6-4.4c0.3-0.6,0.8-0.8,1.3-0.9c0.4-0.1,0.8,0,1.1,0.1
		c-0.8,1.8-1.3,3.1-1.7,4.5c0.8-0.2,1.7-0.4,2.6-0.6c0.5-0.1,2.3-0.4,2.6,1.3C44.1,26.6,42.2,27.1,40.4,27.6 M39.8,35.8
		C39.8,35.7,39.7,35.7,39.8,35.8l-0.1-0.1v0.1L39.8,35.8C39.7,35.8,39.8,35.8,39.8,35.8z M39.8,36C39.8,36,39.8,36,39.8,36
		C39.8,36,39.8,36,39.8,36l-0.1-0.1h-0.1V36h-0.1v-0.3h0v0h0.1c0.1,0,0.1,0,0.1,0.1c0,0.1,0,0.1-0.1,0.1L39.8,36
		C39.8,36,39.8,36,39.8,36C39.8,36,39.8,36,39.8,36L39.8,36z M40,35.8c0-0.2-0.1-0.3-0.3-0.3c-0.2,0-0.3,0.1-0.3,0.3
		c0,0.2,0.1,0.3,0.3,0.3C39.9,36.1,40,36,40,35.8z M40,35.8c0,0.2-0.1,0.3-0.3,0.3c-0.2,0-0.3-0.1-0.3-0.3c0-0.2,0.1-0.3,0.3-0.3
		C39.9,35.5,40,35.7,40,35.8z"/>
</g>
</svg>
