<?xml version="1.0" encoding="utf-8"?>
<!-- Generator: Adobe Illustrator 28.3.0, SVG Export Plug-In . SVG Version: 6.00 Build 0)  -->
<svg version="1.1" id="Layer_1" xmlns="http://www.w3.org/2000/svg" xmlns:xlink="http://www.w3.org/1999/xlink" x="0px" y="0px"
	 viewBox="0 0 76 75" style="enable-background:new 0 0 76 75;" xml:space="preserve">
<style type="text/css">
	.st0{fill:#2276BC;}
</style>
<path class="st0" d="M10,34.4c-1.3,0-2.4,1.1-2.4,2.4c0,1.3,1.1,2.4,2.4,2.4s2.4-1.1,2.4-2.4C12.4,35.4,11.3,34.4,10,34.4 M9.1,40.1
	c-0.6-0.6-1.1-0.9-1.6-1.6C7.2,38,7,37.4,7,36.8c0-0.6,0.2-1.1,0.5-1.5c0.4-0.6,0.8-1.3,1.1-1.8l0,0c0.2-0.3,0.3-0.6,0.5-0.9
	c0.3-0.6,0.8-1.3,0.4-2.2l0,0l0-0.1l0,0v0l0,0l0,0l0,0l0,0c0,0.1-1.7,2.3-5.2,7l0,0c-0.1,0.1-0.1,0.2-0.1,0.4v0
	c0,0.2,0.1,0.4,0.1,0.5l0,0L6,41.4c0.2,0.3,0.2,1,0.2,1.4c0,0.2,0,0.7,0,1l0,0.1c0,0.3,0.2,0.6,0.4,0.7l0,0c0.1,0.1,0.2,0.1,0.3,0.1
	l0.1,0c0.1,0,0.2,0,0.3,0h0l2.2,0v-2.6c0-0.2,0-1.1-0.1-1.3C9.5,40.5,9.4,40.3,9.1,40.1 M10.5,40.8c-0.1,0.2-0.1,1.1-0.1,1.3v2.6
	l2.2,0h0c0.1,0,0.2,0,0.3,0l0.1,0c0.1,0,0.2,0,0.3-0.1l0,0c0.3-0.1,0.4-0.4,0.4-0.7l0-0.1c0-0.3,0-0.8,0-1c0-0.5,0.1-1.1,0.2-1.4
	l1.9-3.1l0,0c0.1-0.1,0.1-0.3,0.1-0.5v0c0-0.2,0-0.3-0.1-0.4l0,0c-3.5-4.7-5.1-7-5.2-7l0,0l0,0l0,0l0,0l0,0l0,0l0,0.1l0,0
	c-0.5,0.8,0,1.6,0.4,2.2c0.2,0.3,0.3,0.6,0.5,0.9v0c0.3,0.6,0.8,1.2,1.1,1.8c0.3,0.4,0.5,0.9,0.5,1.5c0,0.6-0.2,1.3-0.6,1.8
	c-0.4,0.7-1,1-1.6,1.6C10.7,40.3,10.5,40.5,10.5,40.8 M49.9,43.4h-2.3V31.9h2.3V43.4z M29.4,39.1c-0.2-0.3-0.4-0.6-0.7-0.8
	c-0.3-0.2-0.7-0.4-1.1-0.5c-0.4-0.1-0.8-0.2-1.2-0.3c-0.4-0.1-0.8-0.2-1.2-0.3c-0.4-0.1-0.7-0.2-1-0.3L24,36.8l-0.1-0.1
	c-0.1,0-0.2-0.1-0.2-0.1c-0.3-0.2-0.4-0.5-0.4-0.8c0-0.4,0.3-0.8,0.6-0.9c0.2-0.1,0.4-0.1,0.6-0.1c0.2,0,0.4,0,0.6,0
	c0.5,0,0.9,0.1,1.3,0.3c0.4,0.2,0.6,0.5,0.7,1.1h2.3c-0.1-0.6-0.2-1-0.5-1.4c-0.3-0.4-0.6-0.7-1-1c-0.4-0.2-0.8-0.4-1.3-0.5
	c-0.5-0.1-1-0.2-1.5-0.2c-0.5,0-0.9,0-1.4,0.1c-0.5,0.1-1,0.3-1.4,0.5c-0.4,0.2-0.8,0.5-1,0.9c-0.3,0.4-0.4,0.8-0.4,1.4
	c0,0.5,0.1,0.9,0.3,1.3c0.2,0.3,0.4,0.6,0.7,0.9c0.3,0.2,0.7,0.4,1,0.5c0.4,0.1,0.8,0.2,1.2,0.3c0.4,0.1,0.8,0.2,1.2,0.3
	c0.4,0.1,0.7,0.2,1,0.3c0.3,0.1,0.5,0.2,0.7,0.4l0,0c0.2,0.2,0.3,0.5,0.3,0.8c0,0.3-0.1,0.6-0.3,0.8c-0.1,0.1-0.3,0.2-0.5,0.3
	c-0.2,0.1-0.5,0.2-0.8,0.2c-0.3,0-0.5,0-0.7,0c-0.6,0-1.1-0.1-1.5-0.4c-0.4-0.3-0.7-0.7-0.7-1.4h-2.2c0,0.6,0.1,1.1,0.4,1.6
	c0.2,0.4,0.5,0.8,0.9,1.1c0.4,0.3,0.9,0.5,1.4,0.7c0.5,0.1,1.1,0.2,1.8,0.2c0.5,0,1.1-0.1,1.6-0.2c0.5-0.1,1-0.3,1.5-0.6
	c0.4-0.3,0.8-0.6,1.1-1c0.3-0.4,0.4-0.9,0.4-1.5C29.7,39.9,29.6,39.5,29.4,39.1 M46.6,36.8c-0.1-0.4-0.2-0.8-0.5-1.1
	c-0.2-0.3-0.5-0.5-0.9-0.7c-0.4-0.2-0.9-0.2-1.5-0.2c-0.3,0-0.7,0.1-1,0.2c-0.6,0.2-1,0.5-1.4,1l-0.1,0.2V35h-2.3v0v1.6v6.7h2.3V39
	c0-0.8,0.1-1.5,0.4-1.8l0.1-0.1l0,0c0.2-0.2,0.4-0.4,0.7-0.5c0.1,0,0.3-0.1,0.4-0.1c0.7,0,1.2,0.4,1.4,1h0c0.1,0.3,0.1,0.7,0.1,1.1
	v4.7h2.3v-5.1C46.8,37.7,46.7,37.3,46.6,36.8 M71.8,36.4c-0.2-0.4-0.4-0.7-0.6-0.9c-0.3-0.2-0.6-0.4-1-0.5c-0.4-0.1-0.8-0.2-1.2-0.2
	c-0.6,0-1.1,0.1-1.5,0.4c-0.4,0.3-0.8,0.6-1,1c-0.2-0.5-0.6-0.9-1-1.1c-0.4-0.2-0.9-0.3-1.4-0.3c-0.5,0-1,0.1-1.5,0.4
	c-0.4,0.2-0.7,0.5-1,0.9v-1h-2.1h-0.2v8.3h2.3v-4.8c0-0.4,0.1-0.7,0.2-1c0.1-0.3,0.3-0.4,0.4-0.6c0.2-0.1,0.3-0.2,0.5-0.3
	c0.1,0,0.1,0,0.2,0c0.1,0,0.1,0,0.2,0c0.7,0,1.3,0.5,1.4,1.3l0,0.1c0,0.2,0,0.5,0,0.7v4.7h2.3v-4.6c0-0.3,0-0.5,0.1-0.8
	c0-0.2,0.1-0.3,0.1-0.5c0.2-0.5,0.7-0.9,1.3-0.9c0.7,0,1.3,0.5,1.4,1.2l0,0.1c0,0.2,0,0.5,0,0.8v4.7h2.3v-5.6
	C72.1,37.3,72,36.8,71.8,36.4 M35.7,40.2c0,0.1,0,0.3,0,0.5c0,0.2-0.1,0.4-0.2,0.6c-0.1,0.2-0.3,0.4-0.5,0.5c-0.2,0.2-0.6,0.2-1,0.2
	c-0.2,0-0.4,0-0.5,0c-0.1,0-0.2,0-0.2,0c-0.2-0.1-0.5-0.3-0.6-0.5c-0.1-0.1-0.1-0.2-0.1-0.4v0l0-0.1l0-0.1l0-0.1l0,0l0-0.2
	c0.1-0.3,0.4-0.6,0.7-0.7v0l0.1,0c0.4-0.1,0.9-0.2,1.1-0.2c0.2,0,0.4,0,0.5-0.1c0.2,0,0.3-0.1,0.5-0.1c0.1,0,0.3-0.1,0.4-0.2V40.2z
	 M38.1,42.6c0-0.3-0.1-0.7-0.1-1.1v-4.2l0,0c0-0.1,0-0.3,0-0.4c-0.2-0.8-0.7-1.4-1.4-1.8c-0.3-0.1-0.6-0.2-1-0.3
	c-0.4-0.1-0.9-0.1-1.3-0.1c-0.5,0-0.9,0-1.4,0.1c-0.5,0.1-0.9,0.2-1.2,0.5c-0.1,0.1-0.2,0.1-0.3,0.2l0,0l0,0l0,0l0,0
	c-0.6,0.4-0.9,1.3-0.9,2v0l0,0v0h2.3c0-0.2,0.1-0.5,0.1-0.7v0c0.1-0.3,0.4-0.6,0.7-0.7h0c0.2-0.1,0.4-0.1,0.7-0.1
	c0.3,0,0.6,0.1,0.8,0.1l0,0v0c0.3,0.1,0.6,0.5,0.6,0.9c0,0.4-0.3,0.8-0.6,0.9c-0.1,0-0.1,0-0.2,0.1c-0.3,0.1-0.6,0.1-0.9,0.1
	c-0.3,0-0.7,0.1-1,0.1c-0.3,0.1-0.7,0.1-1,0.2c-0.1,0-0.3,0.1-0.3,0.1c-0.8,0.3-1.4,1-1.5,1.9c0,0.1,0,0.2,0,0.4c0,0.2,0,0.3,0,0.5
	c0.2,0.9,0.9,1.7,1.8,1.9c0.1,0,0.5,0.1,1,0.1c0.4,0,1-0.1,1.5-0.2c0.5-0.2,0.9-0.4,1.3-0.8c0,0.1,0,0.3,0.1,0.4
	c0,0.1,0.1,0.3,0.1,0.4h2.3C38.2,43.2,38.1,43,38.1,42.6 M56.2,40.2c0,0.1,0,0.3,0,0.5c0,0.2-0.1,0.4-0.2,0.6
	c-0.1,0.2-0.3,0.4-0.5,0.5c-0.2,0.2-0.6,0.2-1,0.2c-0.2,0-0.4,0-0.5,0c-0.1,0-0.2,0-0.2,0c-0.2-0.1-0.4-0.3-0.6-0.5
	c-0.1-0.1-0.1-0.2-0.1-0.4v0l0-0.1l0-0.1l0-0.1l0,0l0-0.2c0.1-0.3,0.4-0.6,0.7-0.7v0l0.1,0c0.4-0.1,0.9-0.2,1.1-0.2
	c0.2,0,0.4,0,0.5-0.1c0.2,0,0.3-0.1,0.5-0.1c0.1,0,0.3-0.1,0.4-0.2V40.2z M58.5,42.6c0-0.3-0.1-0.7-0.1-1.1v-4.2l0,0
	c0-0.1,0-0.3,0-0.4c-0.2-0.8-0.7-1.4-1.4-1.8c-0.3-0.1-0.6-0.2-1-0.3c-0.4-0.1-0.9-0.1-1.3-0.1c-0.5,0-0.9,0-1.4,0.1
	c-0.5,0.1-0.9,0.2-1.2,0.5c-0.1,0.1-0.2,0.1-0.3,0.2l0,0l0,0l0,0l0,0c-0.6,0.4-0.9,1.3-0.9,2v0l0,0v0h2.3c0-0.2,0.1-0.5,0.1-0.7v0
	c0.1-0.3,0.4-0.6,0.7-0.7h0c0.2-0.1,0.4-0.1,0.7-0.1c0.3,0,0.6,0.1,0.8,0.1l0,0v0c0.3,0.1,0.6,0.5,0.6,0.9c0,0.4-0.3,0.8-0.6,0.9
	c-0.1,0-0.1,0-0.2,0.1c-0.3,0.1-0.6,0.1-0.9,0.1c-0.3,0-0.7,0.1-1,0.1c-0.3,0.1-0.7,0.1-1,0.2c-0.1,0-0.3,0.1-0.3,0.1
	c-0.8,0.3-1.4,1-1.5,1.9c0,0.1,0,0.2,0,0.4c0,0.2,0,0.3,0,0.5c0.2,0.9,0.9,1.7,1.8,1.9c0.1,0,0.5,0.1,1,0.1c0.4,0,1-0.1,1.5-0.2
	c0.5-0.2,0.9-0.4,1.3-0.8c0,0.1,0,0.3,0.1,0.4c0,0.1,0.1,0.3,0.1,0.4h2.3C58.6,43.2,58.5,43,58.5,42.6"/>
</svg>
