<?xml version="1.0" encoding="utf-8"?>
<!-- Generator: Adobe Illustrator 28.3.0, SVG Export Plug-In . SVG Version: 6.00 Build 0)  -->
<svg version="1.1" id="Layer_1" xmlns="http://www.w3.org/2000/svg" xmlns:xlink="http://www.w3.org/1999/xlink" x="0px" y="0px"
	 viewBox="0 0 76 75" style="enable-background:new 0 0 76 75;" xml:space="preserve">
<style type="text/css">
	.st0{fill:#FFFFFF;}
	.st1{fill:#F37522;}
</style>
<g>
	<path class="st0" d="M70.6,40c0.2-0.2,0.3-0.5,0.3-0.8v-0.8c0-2.4-1.2-3.6-3.6-3.6h-0.8c-2.4,0-3.6,1.2-3.6,3.6v1.7
		c0,2.4,1.2,3.6,3.6,3.6h3.4c0.3,0,0.6-0.1,0.8-0.3c0.2-0.2,0.3-0.5,0.3-0.8c0-0.3-0.1-0.5-0.3-0.8c-0.2-0.2-0.5-0.3-0.8-0.3h-3.4
		c-0.9,0-1.4-0.4-1.5-1.2h4.9C70.1,40.3,70.4,40.2,70.6,40z M66.4,36.9h0.8c0.9,0,1.4,0.4,1.5,1.2H65C65,37.3,65.5,36.9,66.4,36.9z"
		/>
	<path class="st0" d="M61.3,31.3c-0.3,0-0.5,0.1-0.8,0.3c-0.2,0.2-0.3,0.5-0.3,0.8v10.2c0,0.3,0.1,0.6,0.3,0.7
		c0.2,0.2,0.5,0.3,0.8,0.3c0.3,0,0.6-0.1,0.8-0.3c0.2-0.2,0.3-0.5,0.3-0.8V32.4c0-0.3-0.1-0.5-0.3-0.8
		C61.9,31.5,61.6,31.3,61.3,31.3z"/>
	<g>
		<path class="st0" d="M58.8,31.3c-0.3,0-0.5,0.1-0.8,0.3c-0.2,0.2-0.3,0.5-0.3,0.8c0,0.3,0.1,0.6,0.3,0.7c0.2,0.2,0.5,0.3,0.8,0.3
			c0.3,0,0.6-0.1,0.8-0.3c0.2-0.2,0.3-0.5,0.3-0.8c0-0.3-0.1-0.5-0.3-0.8C59.3,31.5,59.1,31.3,58.8,31.3z"/>
		<path class="st0" d="M58.8,34.7c-0.3,0-0.5,0.1-0.8,0.3c-0.2,0.2-0.3,0.5-0.3,0.8v6.8c0,0.3,0.1,0.6,0.3,0.7
			c0.2,0.2,0.5,0.3,0.8,0.3c0.3,0,0.6-0.1,0.8-0.3c0.2-0.2,0.3-0.5,0.3-0.8v-6.8c0-0.3-0.1-0.5-0.3-0.8
			C59.3,34.9,59.1,34.7,58.8,34.7z"/>
	</g>
	<path class="st0" d="M53.7,34.7h-2.3v-2.3c0-0.3-0.1-0.5-0.3-0.8c-0.2-0.2-0.5-0.3-0.8-0.3c-0.3,0-0.5,0.1-0.8,0.3
		c-0.2,0.2-0.3,0.5-0.3,0.8v7.6c0,2.4,1.2,3.6,3.6,3.6h0.8c2.4,0,3.6-1.2,3.6-3.6v-1.7C57.3,36,56.1,34.7,53.7,34.7z M51.4,36.9h2.3
		c1,0,1.5,0.5,1.5,1.5v1.7c0,1-0.5,1.5-1.5,1.5h-0.8c-1,0-1.5-0.5-1.5-1.5V36.9z"/>
	<path class="st0" d="M45.2,34.7h-0.8c-2.4,0-3.6,1.2-3.6,3.6v1.7c0,2.4,1.2,3.6,3.6,3.6h0.8c2.4,0,3.6-1.2,3.6-3.6v-1.7
		C48.8,36,47.6,34.7,45.2,34.7z M42.9,38.4c0-1,0.5-1.5,1.5-1.5h0.8c1,0,1.5,0.5,1.5,1.5v1.7c0,1-0.5,1.5-1.5,1.5h-0.8
		c-1,0-1.5-0.5-1.5-1.5V38.4z"/>
	<g>
		<path class="st1" d="M32.1,31.3c-0.3,0-0.6,0.1-0.8,0.3c-0.2,0.2-0.3,0.5-0.3,0.8v10.2c0,0.3,0.1,0.6,0.3,0.8
			c0.2,0.2,0.5,0.3,0.8,0.3c0.3,0,0.6-0.1,0.8-0.3c0.2-0.2,0.3-0.5,0.3-0.8V32.4c0-0.3-0.1-0.6-0.3-0.8
			C32.7,31.4,32.4,31.3,32.1,31.3z"/>
		<path class="st1" d="M38.9,31.3c-0.3,0-0.6,0.1-0.8,0.3c-0.2,0.2-0.3,0.5-0.3,0.8v10.2c0,0.3,0.1,0.6,0.3,0.8
			c0.2,0.2,0.5,0.3,0.8,0.3c0.3,0,0.6-0.1,0.8-0.3c0.2-0.2,0.3-0.5,0.3-0.8V32.4c0-0.3-0.1-0.6-0.3-0.8
			C39.5,31.4,39.2,31.3,38.9,31.3z"/>
		<path class="st1" d="M35.5,31.3c-0.3,0-0.6,0.1-0.8,0.3c-0.2,0.2-0.3,0.5-0.3,0.8v4.4c0,0.3,0.1,0.6,0.3,0.8
			c0.2,0.2,0.5,0.3,0.8,0.3c0.3,0,0.6-0.1,0.8-0.3c0.2-0.2,0.3-0.5,0.3-0.8v-4.4c0-0.3-0.1-0.6-0.3-0.8
			C36.1,31.4,35.8,31.3,35.5,31.3z"/>
	</g>
	<path class="st0" d="M29.2,31.3c-0.3,0-0.5,0.1-0.8,0.3c-0.2,0.2-0.3,0.5-0.3,0.8v2.3h-2.3c-2.4,0-3.6,1.2-3.6,3.6v1.7
		c0,2.4,1.2,3.6,3.6,3.6h0.8c2.4,0,3.6-1.2,3.6-3.6v-7.6c0-0.3-0.1-0.5-0.3-0.8C29.7,31.5,29.5,31.3,29.2,31.3z M24.3,38.4
		c0-1,0.5-1.5,1.5-1.5h2.3v3.2c0,1-0.5,1.5-1.5,1.5h-0.8c-1,0-1.5-0.5-1.5-1.5V38.4z"/>
	<path class="st0" d="M18.1,34.7h-0.8c-2.4,0-3.6,1.2-3.6,3.6v1.7c0,2.4,1.2,3.6,3.6,3.6h3.4c0.3,0,0.6-0.1,0.8-0.3
		c0.2-0.2,0.3-0.5,0.3-0.8c0-0.3-0.1-0.5-0.3-0.8c-0.2-0.2-0.5-0.3-0.8-0.3h-3.4c-0.9,0-1.4-0.4-1.5-1.2h4.9c0.3,0,0.5-0.1,0.8-0.3
		c0.2-0.2,0.3-0.5,0.3-0.8v-0.8C21.8,36,20.6,34.7,18.1,34.7z M15.8,38.1c0.1-0.8,0.5-1.2,1.5-1.2h0.8c0.9,0,1.4,0.4,1.5,1.2H15.8z"
		/>
	<path class="st0" d="M13.4,35.8c0-0.3-0.1-0.5-0.4-0.7c-0.2-0.2-0.4-0.3-0.7-0.3l0,0l0,0l0,0H6.3c-0.3,0-0.5,0.1-0.8,0.3
		c-0.2,0.2-0.3,0.5-0.3,0.8c0,0.3,0.1,0.6,0.3,0.7c0.2,0.2,0.5,0.3,0.8,0.3h3.6l-4.5,5c-0.2,0.2-0.3,0.5-0.3,0.8
		c0,0.3,0.1,0.5,0.3,0.7c0.2,0.2,0.4,0.3,0.7,0.3c0,0,0.1,0,0.1,0h6c0.3,0,0.6-0.1,0.8-0.3c0.2-0.2,0.3-0.5,0.3-0.8
		c0-0.3-0.1-0.5-0.3-0.8c-0.2-0.2-0.5-0.3-0.8-0.3H8.6l4.5-5C13.3,36.3,13.4,36.1,13.4,35.8z"/>
</g>
</svg>
